<?xml version="1.0" encoding="UTF-8"?>
<svg id="Layer_1" data-name="Layer 1" xmlns="http://www.w3.org/2000/svg" viewBox="0 0 1457.99 489.76">
  <defs>
    <style>
      .cls-1 {
        fill: #fff;
      }

      .cls-1, .cls-2 {
        stroke-width: 0px;
      }

      .cls-2 {
        fill: #003d69;
      }
    </style>
  </defs>
  <rect class="cls-2" x="84.74" y="132.88" width="795.14" height="221.27"/>
  <path class="cls-2" d="M0,0v489.76h1457.99V0H0ZM1442.15,473.92H15.84V15.84h1426.31v458.08Z"/>
  <g>
    <path class="cls-2" d="M897.99,132.97c33.34.09,66.68,0,100.02.05,17.14.32,34.91,4.14,48.78,14.72,10.01,7.21,16.83,18.23,20,30.05,3.57,13.27,3.73,27.24,2.25,40.83-1.57,12.97-5.63,26.28-14.76,35.98-10.27,10.69-24.78,16.2-39.16,18.56-12.59,2.32-25.42,1.43-38.14,1.6-10.51.01-21-.03-31.5.02.03,26.49,0,52.99.01,79.48-15.83.02-31.67-.04-47.5.03.01-73.77-.01-147.54,0-221.32ZM945.48,171.79c.03,21.57,0,43.14.01,64.72,13.82.01,27.63-.02,41.45.01,9.45.22,19.63-1.69,26.8-8.28,6.56-5.99,8.5-15.28,8.68-23.81-.03-7.95-1.09-16.63-6.52-22.85-6.14-7.01-15.85-9.44-24.83-9.81-15.2-.01-30.4-.03-45.59.02Z"/>
    <path class="cls-2" d="M1124.1,163.94c11.79-4.19,24.43-5.59,36.89-5.43,13.94-.19,27.97,2.02,41.03,6.94,7.06,2.67,14.17,5.99,19.29,11.73,8.17,8.57,10.57,20.89,10.67,32.35.03,26.67,0,53.33.01,79.99.12,7.28-.34,14.72,1.42,21.84.88,3.97,4.42,6.46,7.82,8.24.01,2.13-.01,4.26.01,6.41-16.03,0-32.05.01-48.08-.01-2.59-5.92-3.37-12.39-3.98-18.77-8.07,8.06-17.42,15.05-28.02,19.38-15.02,5.77-32.13,6.19-47.38,1.03-11.6-4.07-22.13-12.38-27-23.88-4.91-11.79-5.08-25.23-1.96-37.5,3.31-12.84,12.92-23.54,24.9-29.01,17.42-8.12,36.94-8.88,55.68-11.48,6.64-1.1,13.86-2.17,19.05-6.85,4.85-4.6,4.27-12.53,1-17.86-3.45-4.91-9.71-6.46-15.31-7.32-9.12-1.13-18.91-1.47-27.41,2.55-7.34,3.47-10.52,11.71-11.84,19.22-14.25-.01-28.49.03-42.73-.02.78-11.64,3.79-23.47,10.66-33.07,6.11-8.73,15.33-14.93,25.28-18.48ZM1139.07,260.46c-6.02,2.72-10.96,8.33-11.71,15.04-1.06,7.07.38,15.56,6.63,19.92,7.65,5.61,17.94,5.06,26.72,2.92,9.05-2.61,18.62-7.28,22.86-16.23,5.58-10.94,3.87-23.52,4.21-35.35-14.78,9.01-33.16,6.77-48.71,13.7Z"/>
    <path class="cls-2" d="M1245.39,158.75c16.16,0,32.32.02,48.48-.01,6.3,20.23,12.64,40.45,18.92,60.68,5.62-20.2,11.05-40.46,16.66-60.67,15.39.03,30.78-.03,46.18.03-17.8,65.07-35.7,130.11-53.27,195.24-15.41-.03-30.81.02-46.2-.02,4.71-17.25,9.31-34.52,14.02-51.76-14.93-47.83-29.87-95.65-44.79-143.49Z"/>
  </g>
  <g>
    <path class="cls-1" d="M238.22,175.36c-8.98-9.6-22.25-14.18-35.19-14.49-26.03-.05-52.06.05-78.08-.04-.17,6.11-.07,12.22-.07,18.33,23.38,0,46.75-.02,70.12,0,7.89.29,16.41,1.33,22.73,6.53,5.9,4.69,8.32,12.48,8.24,19.8.09,7.12-1.45,14.97-6.95,19.96-6.35,5.4-14.85,7.38-22.99,7.91-16.12.03-32.24.01-48.36.01-.08-13.96-.02-27.91-.03-41.86-7.59-.02-15.18-.01-22.77-.01,0,42.13-.02,84.25.01,126.38,7.58.01,15.16-.02,22.74.02.03-22.14.01-44.27.01-66.4h54.36c10.94-.38,22.42-2.77,31.01-9.98,11.66-9.98,17.43-26.03,15.61-41.18-.72-9.13-4.02-18.27-10.39-24.99Z"/>
    <path class="cls-1" d="M415,206.59c-12.57-6.83-27.58-7.8-41.45-5.33-12.42,2.29-23.79,9.47-31.23,19.68-10.12,13.51-13.08,31.12-12.09,47.64.76,14.17,5.48,28.7,15.85,38.79,9.44,9.96,23.41,14.58,36.92,14.53,14.59.39,30.22-2.93,41.11-13.27,11.46-11.28,17.18-27.35,18.14-43.19.73-11.89.03-24.24-4.85-35.28-4.31-10.24-12.66-18.42-22.4-23.57ZM412.46,292.96c-3.94,6.4-10.91,10.55-18.28,11.64-10.86,1.98-23.43.32-31.54-7.77-7.86-8.35-10.98-20.05-11.51-31.25-.41-12.93,2.17-26.45,9.74-37.17,4.49-6.43,11.99-10.22,19.66-11.16,9.89-1.26,20.86.29,28.62,7.03,6.75,5.87,9.99,14.71,11.26,23.37,1.91,15.4,0,31.74-7.95,45.31Z"/>
    <path class="cls-1" d="M320.48,201.17c-6.28-.56-12.86-.71-18.72,1.98-8.68,3.95-15.45,11.27-20.68,19.08.08-6.28,0-12.56.04-18.84-6.51-.01-13.01-.01-19.51,0,.01,38.17-.02,76.33.01,114.49,6.83.02,13.66.02,20.48,0,.02-22.14.03-44.27,0-66.41.03-9.5,4.71-18.85,12.25-24.6,7.49-5.48,17.33-6.54,26.29-5.23-.11-6.83.2-13.66-.16-20.47Z"/>
    <path class="cls-1" d="M834.37,302.47c-4.46.47-9.05.78-13.47-.12-3.58-.71-6.16-4.23-5.9-7.85-.03-25.11-.01-50.23-.01-75.34,6.46-.01,12.93,0,19.4-.01-.04-5.25-.01-10.51-.03-15.76-6.46-.01-12.91,0-19.36,0-.02-10.67,0-21.34-.01-32-7-.01-14-.01-20.99,0-.02,10.66,0,21.33-.01,31.99-5.38.01-10.75,0-16.13.01.01,5.26-.01,10.51.02,15.77,5.37-.01,10.74-.01,16.11,0-.02,24.11.02,48.21-.01,72.32.19,6.99.54,14.49,4.64,20.46,3.03,4.84,8.88,6.79,14.28,7.48,7.18.53,14.51.38,21.49-1.57-.04-5.13-.02-10.26-.02-15.38Z"/>
    <path class="cls-1" d="M620.09,209.35c-9.31-8.35-22.73-9.34-34.62-8.12-11.66,1.31-22.29,7.9-29.17,17.32-3.11-5.17-6.85-10.23-12.24-13.19-9.09-5.02-20.09-5.42-30.1-3.58-10.81,2.05-19.43,9.55-26.29,17.73-.07-5.37-.02-10.75-.03-16.12-6.68-.01-13.35-.01-20.02,0-.02,38.16-.02,76.32,0,114.48,6.79.04,13.58.02,20.37.02.01-20.12-.01-40.25.01-60.37-.02-6.86.57-13.83,2.82-20.35,4.71-14.64,22.75-22.62,37-17.52,4.13,1.48,7.68,4.73,9.02,8.97,2,6.08,1.95,12.57,2.04,18.89-.03,23.46-.02,46.92,0,70.38,6.91.01,13.82-.02,20.74.02.03-22.79.01-45.58.01-68.37.13-7.4,1.49-15.28,6.3-21.17,8.72-10.16,24.97-13.14,36.61-6.47,5.78,3.23,7.12,10.41,7.28,16.48.12,26.5-.01,53.01.06,79.51,7.03.01,14.07,0,21.1,0,.02-26.47,0-52.95.01-79.42-.38-10.46-2.77-21.82-10.9-29.12Z"/>
    <path class="cls-1" d="M766.36,251.48c-.69-14.3-5.79-29.05-16.83-38.63-11.2-10.52-27.67-14.41-42.57-11.4-10.98,1.88-20.59,8.58-27.55,17.09-.08-4.89-.04-9.78-.02-14.67-6.69-.02-13.38.01-20.06-.01.03,45.58,0,91.17,0,136.76,6.76.03,13.53.02,20.29.01.03-11.8-.04-23.6.04-35.39,4.07,4.43,8.31,8.91,13.72,11.74,8.87,4.76,19.31,5.31,29.14,4.31,14.64-1.91,28.33-10.81,35.45-23.83,7.73-13.9,9.24-30.37,8.38-45.98ZM741.61,284.08c-3.88,9.99-12.69,18.4-23.44,20.26-10.12,1.7-21.57-.48-28.93-8.06-7.21-7.65-9.9-18.45-10.22-28.71-.27-12.26.77-25.18,7.05-36.02,4.02-7.11,11.34-12.18,19.41-13.48,9.26-1.54,19.6-.2,27.03,5.97,7.25,6.1,10.79,15.49,12.24,24.63,1.62,11.8,1.1,24.19-3.14,35.41Z"/>
  </g>
  <g>
    <path class="cls-2" d="M960.99,61.51h-12c-.02,11.76-.22,23.52.73,35.25-1.91-12.13-6.63-23.52-10.16-35.21-3.08-.06-6.15-.07-9.22-.03-3.49,11.7-8.35,23.06-10.09,35.22-.01-6.1,1.02-12.16.75-18.26-.17-4.69.97-10.44-3.03-13.91-5.33-4.47-14.27-4.3-19.36.49-3.38,3.13-3.69,8.95-.45,12.29,2.66,3.14,6.9,4.06,10.83,4.26.02,8.31-.03,16.62.01,24.94-.12,2.76,1.18,5.89,4.1,6.63,3.2.71,6.55.19,9.83.33,3.99-11.35,7.99-22.69,12.06-34.01,3.46,11.31,7.15,22.55,10.47,33.9,3.9-.04,7.99.7,11.78-.51,3.06-.92,3.71-4.5,3.73-7.26.05-14.71,0-29.41.02-44.12ZM907.99,74.86c-1.96,0-3.55-1.59-3.55-3.55s1.59-3.55,3.55-3.55,3.55,1.59,3.55,3.55-1.59,3.55-3.55,3.55Z"/>
    <path class="cls-2" d="M1019.11,72.21c4.01-.56,7.36-3.04,9.88-6.11-2.96-2-6.02-3.85-9.04-5.74-2.06,1.97-4.94,3.63-7.79,2.29-7.07-2.72-15.63-3.49-22.25.81-5.75,3.39-8.86,9.87-9.84,16.27,9.24.33,19.07-.99,27.75,2.9,4.58,2.05,2.46,7.65,2.93,11.53-5.75-.39-12.35,3.13-13.03,9.3-.73,6.59,6.12,11.6,12.26,11.11,5.65.43,12.1-3.13,12.68-9.21.21-6.3.01-12.61.09-18.92.17-3.59-1.45-7.32-4.7-9.09-7.02-4.17-15.48-4.18-23.37-4.98,1.5-1.54,3.22-3.03,5.47-3.27,6.62-1.1,12.33,4.69,18.96,3.11ZM1013.02,104.1c0,1.96-1.59,3.55-3.55,3.55s-3.55-1.59-3.55-3.55,1.59-3.55,3.55-3.55,3.55,1.59,3.55,3.55Z"/>
    <path class="cls-2" d="M1096.24,75.52c.03-5.28-4.03-9.56-8.4-11.96-6.93-3.6-15.13-3.59-22.68-2.51-8.85,1.28-17.33,7.43-19.35,16.46,4.11.01,8.23.01,12.36-.01,3.35-8.18,14.2-10.63,21.65-6.87,2.9,1.49,4.71,4.68,4.65,7.94.02,6.98.07,13.96-.03,20.94.15,2.57-1.74,5.18-4.43,5.24-5.66.55-11.36.13-17.02.26-.01-2.32-.01-4.64.02-6.95,5.54.45,12.25-2.56,13.19-8.56,1.03-6.74-6-11.91-12.21-11.54-5.5-.36-12.09,2.84-12.69,8.86-.16,8.89-.01,17.79-.07,26.68,8.6.02,17.21.01,25.82.01,4.76-.04,9.88.5,14.27-1.79,3.43-1.66,4.94-5.65,4.91-9.28.03-8.97.01-17.95.01-26.92ZM1060.87,88.31c0-1.96,1.59-3.55,3.55-3.55s3.55,1.59,3.55,3.55-1.59,3.55-3.55,3.55-3.55-1.59-3.55-3.55Z"/>
    <path class="cls-2" d="M1131.55,74.89c-1.96,0-3.55-1.59-3.55-3.55s1.59-3.55,3.55-3.55,3.55,1.59,3.55,3.55-1.59,3.55-3.55,3.55Z"/>
    <path class="cls-2" d="M1225.74,100.99c-1.97-4.87-7.55-7.05-12.49-6.8-.02-10.89-.01-21.79-.01-32.68-4.01-.01-8.01-.01-12.01.01.02,13.69,0,27.38.01,41.07-.02,3.32.81,6.97,3.58,9.1,5.16,3.97,13.13,3.96,18.23-.14,2.88-2.53,4.4-6.95,2.69-10.56ZM1214.49,107.63c-1.96,0-3.55-1.59-3.55-3.55s1.59-3.55,3.55-3.55,3.55,1.59,3.55,3.55-1.59,3.55-3.55,3.55Z"/>
    <path class="cls-2" d="M1307.99,61.51c-4.01-.01-8.01,0-12,0-.04,11.77-.17,23.53.69,35.27-1.81-12.15-6.63-23.52-10.11-35.22-3.09-.07-6.16-.08-9.23-.04-3.44,11.7-8.42,23.02-10.03,35.2-.14-6.11,1-12.18.68-18.3-.09-4.89.95-11-3.58-14.34-5.61-4-14.48-3.7-19.28,1.48-2.94,3.19-3.03,8.6,0,11.76,2.65,3.16,6.92,4.08,10.86,4.3.02,8.34-.04,16.69.02,25.03-.1,2.72,1.19,5.79,4.05,6.52,3.22.72,6.57.2,9.86.34,4.03-11.32,7.94-22.69,12.1-33.96,3.42,11.29,7.13,22.5,10.43,33.84,3.87-.01,7.93.68,11.71-.47,3.09-.88,3.78-4.47,3.8-7.26.07-14.71.01-29.43.03-44.15ZM1254.99,74.86c-1.96,0-3.55-1.59-3.55-3.55s1.59-3.55,3.55-3.55,3.55,1.59,3.55,3.55-1.59,3.55-3.55,3.55Z"/>
    <path class="cls-2" d="M1363.99,61.51c-.02,12.71.03,25.42-.02,38.13,0,2.6-2.2,4.96-4.87,4.78-5.62.23-11.24.03-16.86.08.21-3.59-.63-7.45.8-10.84,2.95-3.37,8.04-1.36,11.94-1.9.01-2.92.01-5.84,0-8.76-4.33-.48-9.63,1.42-13.12-1.93,4.42-.34,9.28-2.09,11.31-6.36,2.66-4.99-.88-11.62-6.28-12.76-5.22-1.02-11.47-.87-15.4,3.21-3.81,4.22-2.18,10.27-2.5,15.41-.4,4.29,4,6.96,7.69,7.66-3.32.79-6.24,3.78-6.19,7.31-.03,5.98.01,11.97,0,17.97,10.51.01,21.02-.02,31.53.01,3.67-.04,7.7-.66,10.56-3.19,2.83-2.37,3.29-6.33,3.41-9.78,0-13.02-.01-26.03,0-39.04h-12ZM1338.57,71.31c0-1.96,1.59-3.55,3.55-3.55s3.55,1.59,3.55,3.55-1.59,3.55-3.55,3.55-3.55-1.59-3.55-3.55Z"/>
    <path class="cls-2" d="M1384.66,30.65c-3.21-1.12-6.42-2.21-9.64-3.24-.74,2.64-2.35,5.14-5.06,6.04-4.29,1.48-9.24,1.27-12.99,4.13-4.13,2.69-5.54,8.72-2.96,12.92,4.16,7.17,17.06,6.89,20.09-1.11,1.24-2.96-.23-5.96-2.25-8.11,5.58-1.14,11.98-4.32,12.81-10.63ZM1363.85,49.79c-1.64,0-2.98-1.33-2.98-2.98s1.33-2.98,2.98-2.98,2.98,1.33,2.98,2.98-1.33,2.98-2.98,2.98Z"/>
    <path class="cls-2" d="M1021.77,32.51c-1.46,5.79-6.08,10.23-11.28,12.83,1.34-3.25,2.12-7.27.04-10.4-3.04-4.81-9.88-5.47-14.79-3.58-4.38,1.58-7.23,7.49-4.27,11.52,1.55,2.65,4.48,3.97,7.42,4.43-1.76,1.85-3.67,3.55-5.8,4.94,2.82,1.19,5.45,3.74,8.74,3.19,6.99-.96,14.01-3.01,19.85-7.08,5.46-3.66,9.64-9.3,10.85-15.84-3.59-.02-7.18-.02-10.76-.01ZM1000.66,41.91c-1.67,0-3.02-1.35-3.02-3.02s1.35-3.02,3.02-3.02,3.02,1.35,3.02,3.02-1.35,3.02-3.02,3.02Z"/>
    <path class="cls-2" d="M1160.74,61.51c.03,12.25-.06,24.5.05,36.75-4.64-4-10.35-6.54-16.25-8.01-.25-6.97.27-13.98-.25-20.93-3.06-11.24-23.04-10.42-24.79,1.29-.57,6.95,7,11.32,13.22,10.72.01,2.84.02,5.68.01,8.53-6.91.62-14.93,5.95-13.71,13.77,1.41,10.17,15.97,12.97,22.98,6.8,3.11-2.75,2.49-7.19,2.48-10.9,6.42,2.67,11.94,7.62,14.91,13.96,3.66-.11,7.81.74,11.01-1.57,2.18-1.76,2.33-4.76,2.35-7.34-.01-14.35-.02-28.71,0-43.06-4.01-.02-8.01-.02-12.01-.01ZM1132.11,105.15c-.66.4-2.33.92-3.47-.32-.09-.1-.17-.22-.23-.34-2.02-3.12,1.16-6.15,4.28-6.68,0,.3,0,.59,0,.89v3.95s.08,2.09-.58,2.49Z"/>
  </g>
</svg>