<?xml version="1.0" encoding="UTF-8"?>
<svg id="Layer_1" data-name="Layer 1" xmlns="http://www.w3.org/2000/svg" viewBox="0 0 1441.68 287.35">
  <defs>
    <style>
      .cls-1 {
        fill: #ff0007;
      }

      .cls-1, .cls-2, .cls-3, .cls-4, .cls-5, .cls-6, .cls-7 {
        stroke-width: 0px;
      }

      .cls-2 {
        fill: #aa0017;
      }

      .cls-3 {
        fill: #ffcd00;
      }

      .cls-4 {
        fill: none;
      }

      .cls-5 {
        fill: #808184;
      }

      .cls-6 {
        fill: #ff000f;
      }

      .cls-7 {
        fill: #ff7b00;
      }
    </style>
  </defs>
  <g>
    <g>
      <path class="cls-7" d="M1359.22,71.75c-2.68-23.58-16.63-48.03-46.9-48.03,0,0-40.74-.01-43.99,55.22-.06,1.09,0,2.21.04,3.3.12,2.86.41,5.72.84,8.55.6,3.95,1.49,7.86,2.7,11.66,1.4,4.4,3.25,8.67,5.62,12.64,2.58,4.3,5.79,8.22,9.61,11.48,4.3,3.66,9.31,6.41,14.67,8.18,3.34,1.11,6.87,1.95,10.37,2.29,4.81.47,9.66-.19,14.33-1.35,7.51-1.86,14.47-5.48,20.28-10.61,2.41-2.13,4.77-4.52,6.55-7.23,0,0,3.77-5.7,1.67-11.39-1.33-3.6-4.03-6.9-8.09-7.26-4.64-.41-7.28,3.16-10.17,6.13,0,0-7.15,8.92-21.16,8.92-8.72,0-15.22-4.05-19.42-10.7-2.77-4.39-4.44-10.12-4.75-15.28h38.06c4.66,0,9.33-.02,13.99,0,1.56,0,3.13-.02,4.69.07,1.55.09,3.16.1,4.67-.33,1.88-.53,3.92-2.06,4.96-3.68,2.39-3.72,1.92-8.33,1.44-12.57ZM1291.7,68.79s3.06-22.27,22.77-22.27,22.48,22.27,22.48,22.27h-45.25Z"/>
      <path class="cls-7" d="M1359,46.38c.34,1.02.71,2.02,1.08,3.03,0,1.22,1.12,3.06,1.54,4.22l1.63,4.45c1.08,2.96,2.17,5.93,3.25,8.89,2.11,5.78,4.25,11.56,6.41,17.33,2.44,6.49,4.9,12.97,7.4,19.44,1.27,3.3,2.55,6.59,3.84,9.88.63,1.61,1.27,3.23,1.9,4.84.32.81.64,1.62.96,2.42.16.4,1.11,2.06.96,2.43-1.89,4.77-3.93,9.51-6.61,13.9-3.33,5.47-7.93,10.27-12.86,14.33-1.07.88-4.67,3.66-5.84,4.39-2.5,1.55-5.1,2.62-7.08,4.88-1.95,2.23-3.03,5.03-3.03,8.01,0,2.44.57,4.87,1.9,6.94,1.1,1.71,2.58,3.13,4.37,4.09,1.86,1,4.25.69,6.19.07,1.86-.6,3.57-1.58,5.23-2.61,7.28-4.5,14.05-9.93,19.77-16.31.56-.63,1.11-1.27,1.64-1.93.62-.76,1.23-1.53,1.78-2.34,0,0,9.19-11.97,14.64-26,5.44-14.03,12.09-32.29,12.09-32.29,4.63-12.27,9.2-24.56,13.88-36.81,1.67-4.37,3.34-8.73,5.01-13.1,1.76-4.61,3.55-9.65,2.12-14.38-1.93-6.39-10.74-10.74-15.9-5.23-1.93,2.06-2.97,4.78-3.97,7.43-4.5,11.97-9,23.95-13.47,35.94-1.92,5.14-3.83,10.28-5.74,15.41-.39,1.04-2.87,5.49-2.45,6.58-2.35-6.17-4.7-12.34-7.04-18.51-4.34-11.4-8.7-22.78-12.97-34.2-1.04-2.77-2.09-5.54-3.2-8.29-.98-2.42-2.72-4.59-5.02-5.86-3.43-1.9-8.07-1.02-10.81,1.71-2.54,2.53-3.45,6.35-3.22,9.93.17,2.51.83,4.95,1.64,7.35Z"/>
      <path class="cls-7" d="M930.01,36.39c-.16,1.43-.14,2.88-.13,4.31.04,4.14.04,8.27.04,12.41v54.12c0,3.01,0,6.01,0,9.02,0,2.77-.17,5.59.16,8.34.36,2.97,1.37,5.89,3.38,8.15,1.72,1.94,4.09,3.07,6.66,3.3.36.03.72.05,1.08.05,3.38,0,6.31-1.62,8.24-4.37,1.63-2.33,2.49-5.07,2.86-7.87.39-2.95.29-5.92.26-8.89-.02-2.47-.02-4.94-.01-7.41,0-2.43,0-4.86,0-7.29v-29.14c0-3-.08-5.93.59-8.88.89-3.91,2.68-7.87,5.7-10.59,2.81-2.53,6.47-3.74,10.21-3.9.32-.01.65-.02.97-.02,3.76,0,7.47,1.08,10.33,3.58,2.49,2.18,4.08,5.13,5.16,8.21,1.53,4.35,1.52,9.04,1.51,13.59,0,9.06-.02,18.12-.02,27.18v23.52s.99,12.28,11.12,12.28,11.03-11.29,11.03-11.29v-54.23s.24-22.87,19.11-22.87c17.5-.05,15.93,22.38,15.93,22.38v55.01s1.44,11,11.09,11,10.99-10.79,10.99-10.79v-60.22s-1.26-41.33-32.9-41.33c-22.99,0-30.82,18.37-31.05,18.33-.07-.01-.18-.31-.21-.36-.18-.33-.35-.66-.53-.99-.28-.51-.57-1.01-.87-1.5-.39-.64-.8-1.26-1.23-1.88-.51-.73-1.04-1.44-1.6-2.13-.63-.78-1.29-1.53-1.98-2.26-.76-.79-1.55-1.55-2.38-2.26-.89-.76-1.83-1.48-2.8-2.13-1.03-.7-2.11-1.33-3.23-1.88-3.34-1.66-7.02-2.62-10.74-2.84-.95-.05-1.92-.11-2.88-.1-2.37.02-4.68.47-6.89,1.32-1.28.49-2.51,1.11-3.69,1.81-1.16.69-2.27,1.47-3.32,2.32-1.23.99-2.38,2.07-3.45,3.22-1.26,1.34-2.42,2.77-3.5,4.27-.14.2-.28.39-.42.59,0,0-1.32-12.74-11.17-12.74-3.97,0-7.24,2.19-9.23,5.54-.73,1.24-1.38,2.62-1.77,4-.22.76-.35,1.54-.44,2.33Z"/>
      <path class="cls-7" d="M1120.52,23.57c-25.85,0-46.81,25.39-46.81,56.72s20.96,56.72,46.81,56.72,46.81-25.39,46.81-56.72-20.96-56.72-46.81-56.72ZM1120.52,113.34c-13.81,0-25-14.76-25-32.97s11.19-32.97,25-32.97,25,14.76,25,32.97-11.19,32.97-25,32.97Z"/>
      <path class="cls-7" d="M1196.9,37.52c0-2.3-.54-4.59-1.67-6.6-1.62-2.9-4.65-6.22-10-6.22-3.26,0-6.04,1.68-7.88,4.3-.75,1.06-1.34,2.23-1.81,3.44-.7,1.78-.95,3.5-.95,5.42,0,.07,0,.14,0,.21,0,4.17.02,8.33.02,12.5v69.36c0,2.42-.23,4.8.46,7.18,1.44,5.03,5.55,9.03,10.96,9.03,9.5,0,10.69-10.63,10.69-10.63v-51.22c0-2.76.36-5.51,1.1-8.17,1.98-7.09,6.81-18.68,20.52-18.68,4.52,0,8.89,1.46,12.24,4.54,2.78,2.56,4.69,5.93,5.99,9.45,2.45,6.67,2.21,13.64,2.15,20.61-.02,2.06-.04,4.12-.04,6.19v28.81c0,3.54-.55,7.16.66,10.58,1.66,4.7,5.78,8.53,10.94,8.53,3.73,0,6.81-1.98,8.63-5.18,1.89-3.32,2.03-6.73,2.04-10.48.02-7.71-.03-15.42-.03-23.13v-22c0-8.58-.92-16.97-3.78-25.14-2.01-5.74-4.83-11.3-8.83-15.92-4.41-5.08-10.24-8.68-16.87-9.97-2.1-.41-4.25-.6-6.39-.6-17.42,0-26.32,11.84-27.78,13.9-.07.09-.34.01-.34-.1Z"/>
    </g>
    <g>
      <path class="cls-5" d="M1007.74,280.12c-.14-.99-.03-2.12-.03-3.09v-108.74c0-1.88.79-3.77,2.09-5.12,1.34-1.38,3.18-2.02,5.08-2.09.12,0,.24,0,.37,0,1.94,0,3.83.61,5.23,1.98,1.64,1.6,2.45,3.78,2.44,6.05,0,2.08,0,4.16,0,6.24v100.01c0,1.68.19,3.5-.2,5.13-.86,3.52-3.8,5.81-7.4,5.81-3.4,0-6.49-2.24-7.44-5.55-.06-.2-.1-.41-.13-.63Z"/>
      <path class="cls-5" d="M1041,280.12c-.14-.99-.03-2.12-.03-3.09v-108.74c0-1.88.79-3.77,2.09-5.12,1.34-1.38,3.18-2.02,5.08-2.09.12,0,.24,0,.37,0,1.94,0,3.83.61,5.23,1.98,1.64,1.6,2.45,3.78,2.44,6.05,0,2.08,0,4.16,0,6.24v100.01c0,1.68.19,3.5-.2,5.13-.86,3.52-3.8,5.81-7.4,5.81-3.4,0-6.49-2.24-7.44-5.55-.06-.2-.1-.41-.13-.63Z"/>
      <path class="cls-5" d="M885.55,259.6c-.18-.75-.36-1.51-.54-2.26-.36-1.51-.72-3.01-1.07-4.52-.71-3.01-1.42-6.03-2.12-9.04-1.6-6.89-3.24-13.91-4.86-20.86-1.61-6.93-3.03-13.95-4.92-20.81-.11-.41-.23-.83-.35-1.24-.53-1.76-1.26-3.46-2.66-4.71-2.08-1.84-5.52-2.12-8.27-1.73-1.99.28-4.02.93-5.4,2.39-1.43,1.51-1.93,3.65-2.38,5.68-4.37,19.74-8.74,39.49-13.11,59.23-4.71-18.93-9.42-37.86-14.14-56.79-.95-3.82-2.23-8.07-5.7-9.92-3.12-1.66-7.35-.36-9.27,2.53-2.72,4.08-1.44,9.15-.19,13.51,6.38,22.31,12.76,44.62,19.14,66.93.71,2.49,1.53,5.15,3.57,6.74,1.67,1.3,3.88,1.66,6,1.76,2.52.11,5.26-.17,7.11-1.89,1.66-1.53,2.23-3.88,2.74-6.08l12.85-56.45c.04-.17.26-.16.3,0,4.22,16.57,8.08,33.22,12.01,49.86.55,2.31,1.09,4.62,1.63,6.93.43,1.83.9,3.73,2.14,5.14,1.66,1.89,4.35,2.48,6.86,2.54,1.99.04,4.05-.21,5.76-1.23,2.63-1.58,3.92-4.69,4.61-7.69,2.02-8.73,4.66-17.31,7.1-25.96,3.84-13.65,8.21-27.19,11.72-40.93.33-1.28.65-2.56.95-3.85.34-1.42.66-2.88.74-4.33.11-2.05-.29-4.07-1.84-5.87-1.46-1.69-3.66-2.58-5.88-2.43-6.07.41-7.46,7.34-8.52,12.06-4.16,18.52-8.88,37.27-13.46,55.42"/>
      <path class="cls-5" d="M994.89,272.24c-1.37-.62-3.14-.43-4.14-1.56-.92-1.04-.96-2.79-.95-4.18.09-13.27.18-26.54.27-39.81.03-5.1.06-10.26-1.1-15.22-1.16-4.97-3.65-9.8-7.77-12.8-3.26-2.38-7.28-3.45-11.25-4.16-8.12-1.47-16.65-1.64-24.47,1-5.86,1.98-11.28,5.68-14.85,10.78-2.35,3.35-4.52,8.14-4.06,12.45.17,1.62.71,3.17,1.75,4.56,2.44,3.26,7.75,4.26,10.74,1.49,2.7-2.5,2.71-6.74,4.49-9.96,2.48-4.49,8.04-6.33,13.16-6.6,5.05-.27,10.43.74,14.19,4.12,3.76,3.38,5.23,9.56,2.27,13.66-1.98,2.74-5.38,4.03-8.65,4.89-6.67,1.76-13.6,2.35-20.26,4.11-6.67,1.76-13.31,4.93-17.29,10.56-3.82,5.4-4.71,12.41-4.04,18.99.5,4.97,1.89,10,4.98,13.92,3.9,4.95,10.14,7.63,16.39,8.45,11.5,1.5,23.61-3.05,31.27-11.75.13,3.53,1.81,6.97,4.51,9.24,2.7,2.27,6.37,3.3,9.87,2.81,3.49-.48,7.15-2.52,8.15-5.89.96-3.25.02-7.66-3.19-9.1ZM974.55,255.31c-.53,4.17-2.63,7.98-5.66,10.86-1.45,1.37-3.11,2.53-4.91,3.39-5.28,2.52-11.8,3.08-17.47,1.66-5.42-1.36-8.18-5.72-7.96-11.21.19-4.57,2.55-8.42,6.38-10.8,3.6-2.23,7.76-3.25,11.89-3.98,5.38-.96,10.99-1.61,16.11-3.63.42-.17,1.01-.41,1.7-.74,0,2.49,0,4.99,0,7.48,0,2.31.21,4.68-.08,6.97Z"/>
      <path class="cls-5" d="M1157.95,195.53c0-.54,0-1.08,0-1.62,0-1.34,0-2.68,0-4.02,0-1.72,0-3.45-.01-5.17,0-1.7,0-3.39-.01-5.09,0-1.25,0-2.5,0-3.76,0-.87.02-1.68.29-2.51.18-.57.43-1.12.73-1.64.85-1.43,2.18-2.49,3.76-3.01.95-.31,1.95-.44,2.94-.44,1.86,0,3.7.56,5.03,1.9,2.24,2.26,2.36,5.53,2.29,8.52-.05,2.15-.02,4.29-.02,6.44v10.43h7.92c1.01,0,2-.08,2.97.29,2.83,1.08,4.61,3.59,4.8,6.6.01.22.02.44.02.66,0,2.62-1.09,5.07-3.33,6.52-.37.24-.75.42-1.14.61-.83.39-1.62.46-2.53.46-2.88,0-5.76,0-8.64,0v54.37s.21,6.44,7.25,6.44,10.72-.5,10.72,7.23c0,2.15-.59,4.1-2.27,5.53-1.81,1.54-4.25,2.09-6.54,2.03-2.76-.07-5.41.1-8.15-.35-2.49-.41-4.87-1.36-7.06-2.59-3.73-2.1-6.76-5.31-8.14-9.41-.63-1.89-.91-3.89-.91-5.88v-57.1c-1.37,0-2.74.03-4.11.04-1.33,0-2.69.13-4-.21-2.09-.54-4.09-2.29-4.97-4.24-.47-1.03-.68-2.16-.68-3.29,0-2.71,1.21-5.18,3.5-6.66,1.13-.73,2.26-.98,3.6-1.03,2.21-.08,4.49-.04,6.7-.04Z"/>
      <path class="cls-5" d="M1142.49,233.13c-2.16-19.46-10-39.64-37.89-39.64-23.06,0-40.03,28.5-34.45,58.13,2.69,14.32,9.06,28.13,25.4,33.9,2.69.95,6.11,1.21,8.94,1.5,8.59.86,17.95-1.96,24.69-7.31,5.11-4.06,12.6-13.92,9.98-21.18-1.07-2.97-3.2-4.46-6.48-4.76-3.75-.34-6.07,3.72-6.96,5.51-2.15,4.35-3.8,12.64-19.38,12.64-9.42,0-14.73-6.13-18.12-11.61-2.24-3.62-3.24-10.48-3.49-14.74h33.78c3.77,0,7.53-.02,11.3,0,1.26,0,2.53-.02,3.79.06,1.25.07,2.55.08,3.77-.27,1.52-.44,3.16-1.7,4-3.04,1.93-3.07,1.51-5.67,1.12-9.17ZM1084.76,230.7s2.16-22.06,21.58-22.06c20.71,0,20.39,22.06,20.39,22.06h-41.97Z"/>
    </g>
    <g>
      <path class="cls-1" d="M576.04,0l-32.31.13.06,26.63-15.26.13-.06,28.99h15.39s-.06,39.27,0,41.12c.06,1.85.51,13.47,12.77,24.9,14.18,13.98,31.1,13.73,31.1,13.73l24.27-.06v-27.59s-6.51,0-20.05,0-15.9-16.35-15.9-16.35l.06-35.63s10.15-.06,21.9-.13c11.75-.06,13.98-12.96,13.98-12.96v-16.09l-35.95.06V0Z"/>
      <path class="cls-1" d="M661.77,26.88c-4.98,0-13.89.29-26.53,10.92-12.64,10.63-14.82,25.67-14.75,29.34.06,3.67.03,68.49.03,68.49l31.35.03s.03-54.86.03-64.02,13.79-15.71,17.56-15.71,18.42.03,18.42.03l-.16-29.09h-25.96Z"/>
      <path class="cls-1" d="M794.34,26.88l-32.86.1s.1,60.44.1,65.81-5.08,16.09-17.43,16.09-16.38-13.31-16.38-16.19.1-41,.1-51.92-10.82-13.98-13.41-13.98-18.77.19-18.77.19c0,0-.1,61.69-.1,67.24s.77,16.28,11.21,28.07c10.44,11.78,23.08,14.94,38.12,14.75,15.04-.19,24.14-2.78,36.3-12.45,12.16-9.67,13.31-28.74,13.22-34.39-.1-5.65-.1-63.32-.1-63.32Z"/>
      <path class="cls-1" d="M903.54,62.9c-3.93-12.55-8.06-18.28-14.94-25.29-11.02-11.21-27.49-13.79-35.25-13.79s-21.07,1.92-34.77,13.22c-13.7,11.3-18.49,30.46-18.87,45.6-.38,15.13,7.57,32.09,18.3,42.05,10.73,9.96,24.14,12.55,36.21,12.45,12.07-.1,19.25-2.59,29.5-8.72,10.25-6.13,17.43-19.44,17.43-19.44,0,0-24.71-6.23-29.89-7.66-2.39,3.54-9.1,9.29-19.25,9-10.15-.29-16.09-7.85-18.68-11.69-.78-1.16-1.37-3.63-1.81-6.61,14.27-.02,69.35-.09,73.94-.09.14-13.65.48-19.54-1.92-29.02ZM831.08,69.9c1.72-6.54,7.83-19.55,23.32-18.5,18.39,1.25,20.31,18.58,20.31,18.58l-43.62-.09Z"/>
    </g>
  </g>
  <g>
    <path class="cls-7" d="M472.93,28.41h-126.17c-8.24,0-15.57,5.21-18.28,12.99-6.01,17.26-12.78,36.7-19.77,56.76,0,0,0,0,0,0-.22.62-.43,1.24-.65,1.86-.15.43-.3.86-.45,1.28-21.81,62.6-45.43,130.38-54.41,156.05-1.04,3.2-2.24,6.84-3.68,10.59-.26.66-1.5,3.83-3.78,6.96-.39.54-.78,1.02-1.17,1.47-.66.79-1.5,1.72-2.73,2.68-.07.05-.14.1-.21.15-.43.33-.9.67-1.45,1-1.35.82-2.49,1.24-2.93,1.4-.07.02-.13.04-.19.06,0,0-.02,0-.03.01-.04.01-.08.02-.12.04-.03,0-.06.02-.09.03-1.62.54-3.11.76-4.32.83h151.65c.98,0,1.96-.11,2.91-.35,3.69-.95,11.57-4.37,14.89-16.55l78.78-226.31c1.87-5.37-2.12-10.98-7.8-10.98Z"/>
    <g>
      <path class="cls-4" d="M157.25,75.51h0s-.03.07-.03.07c.02-.03.03-.07.05-.1l-.02.02h0Z"/>
      <path class="cls-6" d="M99.56,239.63c.03-.09.07-.19.1-.28.1-.27.19-.55.29-.82.16-.45.31-.89.47-1.34.21-.61.43-1.22.64-1.82.27-.76.53-1.52.8-2.28.32-.9.64-1.81.95-2.71.36-1.04.73-2.08,1.09-3.12.41-1.17.82-2.33,1.23-3.5.45-1.28.9-2.56,1.35-3.85.49-1.39.98-2.78,1.46-4.17.52-1.49,1.04-2.98,1.57-4.46.55-1.58,1.11-3.16,1.66-4.73.58-1.66,1.16-3.32,1.75-4.97.61-1.73,1.21-3.46,1.82-5.19.63-1.79,1.26-3.58,1.89-5.37.65-1.84,1.29-3.69,1.94-5.53.66-1.89,1.33-3.78,1.99-5.66.67-1.92,1.35-3.84,2.02-5.77.68-1.95,1.37-3.9,2.05-5.84.69-1.96,1.38-3.93,2.07-5.89.69-1.97,1.38-3.94,2.08-5.91.69-1.97,1.38-3.94,2.07-5.91.69-1.96,1.37-3.92,2.06-5.88.68-1.94,1.36-3.88,2.04-5.82.67-1.91,1.34-3.82,2.01-5.73.66-1.87,1.31-3.74,1.97-5.61.64-1.82,1.28-3.65,1.92-5.47.62-1.77,1.24-3.54,1.86-5.3.6-1.7,1.19-3.4,1.79-5.11.57-1.63,1.14-3.25,1.71-4.88.54-1.54,1.08-3.09,1.62-4.63.51-1.45,1.02-2.9,1.53-4.35.47-1.35.95-2.7,1.42-4.05.43-1.24.87-2.47,1.3-3.71.39-1.12.78-2.23,1.18-3.35.35-.99.69-1.97,1.04-2.96.3-.85.6-1.7.89-2.55.25-.7.49-1.4.74-2.1.4-1.14.76-2.31,1.29-3.4l.05-.06.02-.02.02-.02.03-.02c.1-.21.15-.39.26-.58,1.04-2.3,3.8-4.78,4.92-5.13l-17.08-57.41c-2.13-7.31-9.14-12.33-16.45-12.33H8.48C2.81,0-1.26,5.46.36,10.9l67.84,228.01c2.8,8.09,8.88,12.29,15.1,12.6,0,0,0,0,.01,0,6.47.28,13.06-3.66,16.25-11.88Z"/>
      <path class="cls-2" d="M162.51,69.76s.01-.01.02-.01l-.06.04s.03-.01.04-.02Z"/>
      <path class="cls-2" d="M209.58,250.54c-.28-.94-.56-1.89-.84-2.83-.14-.49-.29-.97-.43-1.46l-29.08-97.68-20.33-68.31c-.76-2.55-.5-5.1.57-7.19.26-.5.57-.97.92-1.42.04-.05.08-.11.12-.16.49-.59,1.07-1.12,1.73-1.57.07-.05.15-.09.22-.14l.06-.04c-1.12.35-3.88,2.84-4.92,5.13-.12.2-.23.4-.33.61-.02.03-.03.07-.05.1-.53,1.09-.89,2.26-1.29,3.4-.25.7-.49,1.4-.74,2.1-.3.85-.6,1.7-.89,2.55-.35.99-.69,1.97-1.04,2.96-.39,1.12-.78,2.23-1.18,3.35-.43,1.24-.87,2.47-1.3,3.71-.47,1.35-.95,2.7-1.42,4.05-.51,1.45-1.02,2.9-1.53,4.35-.54,1.54-1.08,3.09-1.62,4.63-.57,1.63-1.14,3.25-1.71,4.88-.6,1.7-1.19,3.4-1.79,5.11-.62,1.77-1.24,3.54-1.86,5.3-.64,1.82-1.28,3.65-1.92,5.47-.66,1.87-1.31,3.74-1.97,5.61-.67,1.91-1.34,3.82-2.01,5.73-.68,1.94-1.36,3.88-2.04,5.82-.69,1.96-1.37,3.92-2.06,5.88-.69,1.97-1.38,3.94-2.07,5.91-.69,1.97-1.38,3.94-2.08,5.91-.69,1.96-1.38,3.93-2.07,5.89-.68,1.95-1.37,3.9-2.05,5.84-.67,1.92-1.35,3.84-2.02,5.77-.66,1.89-1.32,3.78-1.99,5.66-.65,1.84-1.29,3.69-1.94,5.53-.63,1.79-1.26,3.58-1.89,5.37-.61,1.73-1.21,3.46-1.82,5.19-.58,1.66-1.16,3.32-1.75,4.97-.55,1.58-1.11,3.16-1.66,4.73-.52,1.49-1.04,2.98-1.57,4.46-.49,1.39-.98,2.78-1.46,4.17-.45,1.28-.9,2.56-1.35,3.85-.41,1.17-.82,2.33-1.23,3.5-.36,1.04-.73,2.08-1.09,3.12-.32.9-.64,1.81-.95,2.71-.27.76-.53,1.52-.8,2.28-.21.61-.43,1.22-.64,1.82-.16.45-.31.89-.47,1.34-.1.27-.19.55-.29.82-.03.09-.07.19-.1.28-3.18,8.21-9.78,12.15-16.25,11.88,0,0,0,0-.01,0-.12.01-.24.02-.35.02h126.93c-.1-.33-.19-.66-.29-.99Z"/>
      <path class="cls-3" d="M308.71,98.16c-1.08-3.92-2.16-7.84-3.2-11.77-.86-3.24-1.86-6.36-3.61-9.24-1.71-2.82-4.03-5.26-6.92-6.87-.81-.45-1.65-.83-2.52-1.14-1.37-.48-3.69-.84-5.15-.84h-119.48c-2.08,0-3.87.55-5.31,1.46-.01,0-.03.01-.04.02-.07.05-.15.09-.22.14-.66.45-1.23.98-1.73,1.57-.04.05-.08.11-.12.16-.35.44-.66.91-.92,1.42-1.08,2.09-1.33,4.64-.57,7.19l20.33,68.31,29.08,97.68,1.45,4.89,5.52,19.25c.36,1.02,3.29,8.96,11.34,11.48,3.96,1.23,7.44.62,9.21.17.27-.06.6-.15.98-.27.03,0,.06-.02.09-.03.05-.02.1-.03.15-.05.06-.02.12-.04.19-.06.44-.15,1.58-.58,2.93-1.4.55-.33,1.02-.67,1.45-1,.87-.68,1.52-1.32,2-1.81.32-.32.63-.67.94-1.03.39-.45.78-.93,1.17-1.47,2.28-3.13,3.53-6.29,3.78-6.96,1.45-3.75,2.64-7.39,3.68-10.59.57-1.76,1.1-3.38,1.6-4.8,1.25-3.59,2.51-7.17,3.76-10.76,1.58-4.51,3.15-9.02,4.73-13.53,1.81-5.2,3.63-10.39,5.44-15.59,1.97-5.64,3.94-11.28,5.91-16.92,2.04-5.85,4.08-11.7,6.13-17.54l6.09-17.45c1.94-5.55,3.87-11.09,5.81-16.64,1.76-5.04,3.52-10.07,5.28-15.11l4.49-12.86c1.15-3.3,2.31-6.6,3.46-9.9.58-1.65,1.15-3.29,1.72-4.94.15-.43.3-.86.45-1.28.22-.62.43-1.24.65-1.86,0,0,0,0,0,0Z"/>
    </g>
  </g>
</svg>